<svg width="520" height="160" viewBox="0 0 520 160" xmlns="http://www.w3.org/2000/svg" role="img" aria-labelledby="logoTitle">
  <title id="logoTitle">smart cs logo</title>
  <defs>
    <linearGradient id="logoBlueA" x1="0" y1="0" x2="1" y2="1">
      <stop offset="0%" stop-color="#58D5F7"/>
      <stop offset="100%" stop-color="#2586D7"/>
    </linearGradient>
    <linearGradient id="logoBlueB" x1="0" y1="0" x2="1" y2="1">
      <stop offset="0%" stop-color="#66C9F6"/>
      <stop offset="100%" stop-color="#275FCA"/>
    </linearGradient>
    <linearGradient id="logoBlueC" x1="0" y1="0" x2="1" y2="1">
      <stop offset="0%" stop-color="#7DE5FA"/>
      <stop offset="100%" stop-color="#3AA6E3"/>
    </linearGradient>
    <linearGradient id="logoStar" x1="0" y1="0" x2="1" y2="1">
      <stop offset="0%" stop-color="#BEE8FF"/>
      <stop offset="60%" stop-color="#4FA2F3"/>
      <stop offset="100%" stop-color="#275CC8"/>
    </linearGradient>
  </defs>

  <g transform="translate(18 12)">
    <polygon points="42,10 74,28 74,64 42,46" fill="url(#logoBlueA)"/>
    <polygon points="42,10 12,30 12,66 42,46" fill="url(#logoBlueC)"/>
    <polygon points="42,50 74,68 74,104 42,86" fill="url(#logoBlueB)"/>
    <polygon points="42,50 12,70 12,106 42,86" fill="url(#logoBlueB)"/>
    <polygon points="42,10 42,46 74,64 74,28" fill="none" stroke="#D6F4FF" stroke-width="2"/>
    <polygon points="42,50 42,86 74,104 74,68" fill="none" stroke="#C9E8FF" stroke-width="2"/>
    <polygon points="42,10 42,46 12,66 12,30" fill="none" stroke="#C7F4FF" stroke-width="2"/>
    <polygon points="42,50 42,86 12,106 12,70" fill="none" stroke="#B8DDFE" stroke-width="2"/>

    <polygon points="95,44 108,63 131,68 108,73 95,95 89,73 68,68 89,63" fill="url(#logoStar)"/>
    <polygon points="95,32 100,57 120,68 100,79 95,104 90,79 70,68 90,57" fill="url(#logoStar)" opacity="0.82"/>
  </g>

  <text x="168" y="92" font-family="Segoe UI, Arial, sans-serif" font-size="66" font-weight="700" letter-spacing="-1.2" fill="#141922">smart cs</text>
</svg>
